<svg xmlns="http://www.w3.org/2000/svg" width="150" height="50" fill="none" viewBox="0 0 317 65"><g filter="url(#filter0_d_0_1)"><path fill="#fff" d="M53.2798 13.2308L45.9748 15.0432V51.4747H51.7168V26.3902L59.1175 40.8368H62.4988L70.6013 26.3902V51.4747H76.3433V15.0432L69.0064 13.2308L60.8401 32.3527L53.2798 13.2308Z"/><path fill="#fff" d="M101.289 52C104.649 52 107.467 51.4484 109.742 50.3452C112.039 49.2245 110.157 45.6348 111.305 44.1989C110.221 45.3546 108.86 46.2827 107.222 46.9831C105.585 47.6836 103.713 48.0338 101.608 48.0338C100.013 48.0338 98.5561 47.7886 97.2375 47.2983C95.919 46.808 94.7919 46.1338 93.8562 45.2758C92.9417 44.4703 92.2187 43.5422 91.687 42.4916C91.1766 41.4409 90.847 40.2239 90.6981 38.8405V38.6567H115.357V36.4765C115.357 34.4978 115.048 32.6592 114.431 30.9606C113.836 29.262 112.922 27.7824 111.688 26.5216C110.455 25.2783 108.902 24.3064 107.031 23.606C105.181 22.8881 103.011 22.5291 100.523 22.5291C98.5454 22.5291 96.6102 22.8618 94.7175 23.5272C92.846 24.1926 91.1766 25.147 89.7092 26.3902C88.2206 27.651 87.0297 29.192 86.1365 31.0131C85.2433 32.8168 84.7967 34.8655 84.7967 37.1595V38.2627C84.7967 40.2414 85.2007 42.0713 86.0089 43.7523C86.817 45.4334 87.9441 46.8868 89.3902 48.1126C90.8363 49.3383 92.5696 50.2927 94.5899 50.9756C96.6315 51.6585 98.8644 52 101.289 52ZM100.523 26.5216C102.033 26.5216 103.33 26.7492 104.415 27.2045C105.521 27.6598 106.435 28.2552 107.158 28.9906C107.881 29.7261 108.445 30.6016 108.849 31.6173C109.253 32.6154 109.455 33.5522 109.455 34.4278V34.6642H90.8895C91.1234 33.3508 91.5275 32.1951 92.1017 31.197C92.6972 30.1814 93.4202 29.3233 94.2709 28.6229C95.1215 27.94 96.0785 27.4234 97.1418 27.0732C98.2052 26.7054 99.3323 26.5216 100.523 26.5216Z"/><path fill="#fff" d="M124.161 37.0281V37.5797C124.161 39.611 124.49 41.5109 125.15 43.2796C125.809 45.0306 126.734 46.5541 127.925 47.8499C129.116 49.1457 130.551 50.1614 132.231 50.8968C133.933 51.6323 135.825 52 137.91 52C140.036 52 141.897 51.7023 143.492 51.1069C145.087 50.5116 146.459 49.636 147.607 48.4803L147.862 51.4747L153.285 51.1069V11.1295H147.384V25.8649C146.257 24.7792 144.917 23.9562 143.364 23.3959C141.833 22.818 140.036 22.5291 137.973 22.5291C135.868 22.5291 133.965 22.8881 132.263 23.606C130.562 24.324 129.116 25.3221 127.925 26.6004C126.713 27.8787 125.777 29.4109 125.118 31.197C124.48 32.9656 124.161 34.9093 124.161 37.0281ZM130.062 37.5797V37.0281C130.062 35.6448 130.243 34.3315 130.605 33.0882C130.966 31.8274 131.53 30.7154 132.295 29.7523C133.04 28.8068 133.997 28.0538 135.166 27.4934C136.357 26.9331 137.782 26.6529 139.441 26.6529C141.376 26.6529 142.992 27.0294 144.29 27.7824C145.587 28.5178 146.618 29.4634 147.384 30.6191V43.8049C146.618 45.0482 145.587 46.0375 144.29 46.773C142.992 47.5084 141.355 47.8762 139.377 47.8762C137.739 47.8762 136.336 47.6048 135.166 47.0619C133.997 46.5016 133.04 45.7486 132.295 44.803C131.53 43.8574 130.966 42.763 130.605 41.5197C130.243 40.2764 130.062 38.9631 130.062 37.5797Z"/><path fill="#fff" d="M173.318 51.4747H179.252V26.8105H192.554V23.0544H179.252V21.0582C179.252 19.8674 179.432 18.8255 179.794 17.9325C180.177 17.0394 180.73 16.3127 181.453 15.7523C182.133 15.2095 182.984 14.8068 184.005 14.5441C185.047 14.2639 186.238 14.1238 187.577 14.1238C188.896 14.1238 190.129 14.2201 191.278 14.4128C192.447 14.5879 193.468 14.798 194.34 15.0432L195.042 11.0244C194.489 10.9018 193.947 10.7967 193.415 10.7092C192.883 10.6041 192.352 10.5078 191.82 10.4203C191.012 10.2977 190.193 10.2014 189.364 10.1313C188.534 10.0438 187.694 10 186.844 10C184.802 10 182.952 10.2364 181.293 10.7092C179.634 11.182 178.22 11.8824 177.05 12.8105C175.86 13.7386 174.934 14.8943 174.275 16.2777C173.637 17.6435 173.318 19.237 173.318 21.0582V23.0544H163.812V26.8105H173.318V51.4747Z"/><path fill="#fff" d="M204.676 11.1295V15.3583H216.415V47.272H204.676V51.4747H233.577V47.272H222.316V11.1295H204.676Z"/><path fill="#fff" d="M243.912 23.0544V27.2833H255.651V47.272H243.912V51.4747H272.813V47.272H261.553V23.0544H243.912ZM254.886 15.5947C254.886 16.3827 255.173 17.0394 255.747 17.5647C256.342 18.0901 257.236 18.3527 258.426 18.3527C259.596 18.3527 260.479 18.0901 261.074 17.5647C261.67 17.0394 261.967 16.3827 261.967 15.5947C261.967 15.157 261.882 14.7542 261.712 14.3865C261.542 14.0188 261.287 13.7123 260.947 13.4672C260.67 13.2395 260.319 13.0644 259.894 12.9418C259.468 12.8018 258.979 12.7317 258.426 12.7317C257.873 12.7317 257.374 12.8018 256.927 12.9418C256.502 13.0644 256.151 13.2395 255.874 13.4672C255.534 13.7298 255.279 14.045 255.109 14.4128C254.96 14.7805 254.886 15.1745 254.886 15.5947Z"/><path fill="#fff" d="M296.483 33.5872L287.359 23.0544H280.533L293.388 37.1069L280.182 51.4747H287.072L296.61 40.6529L306.148 51.4747H312.975L299.768 37.1069L312.624 23.0544H305.702L296.483 33.5872Z"/></g><g style="mix-blend-mode:exclusion" filter="url(#filter1_d_0_1)"><path fill="#fff" d="M34.6659 20.0609H25.5797V15.5152L24.4439 14H15.3577L14.222 15.5152V20.0609H5.13577L4 21.5761V47.3349L5.13577 48.8501H34.6659L35.8016 47.3349V21.5761L34.6659 20.0609ZM16.4935 17.0304H23.3081V20.0609H16.4935V17.0304ZM33.5301 45.8197H6.27155V23.0913H33.5301V45.8197Z"/><path fill="#2F855A" d="M33.659 23.0913V45.8196H6.40042V44.3044H30.2516L31.3874 42.7892V23.0913H33.659Z"/><path fill="#fff" d="M21.2251 29.2767H18.9535V33.0648H16.1141V36.0952H18.9535V39.8833H21.2251V36.0952H24.0645V33.0648H21.2251V29.2767Z"/></g><defs><filter id="filter0_d_0_1" width="275" height="50" x="41.975" y="10" color-interpolation-filters="sRGB" filterUnits="userSpaceOnUse"><feFlood flood-opacity="0" result="BackgroundImageFix"/><feColorMatrix in="SourceAlpha" result="hardAlpha" type="matrix" values="0 0 0 0 0 0 0 0 0 0 0 0 0 0 0 0 0 0 127 0"/><feOffset dy="4"/><feGaussianBlur stdDeviation="2"/><feComposite in2="hardAlpha" operator="out"/><feColorMatrix type="matrix" values="0 0 0 0 0 0 0 0 0 0 0 0 0 0 0 0 0 0 0.25 0"/><feBlend in2="BackgroundImageFix" mode="normal" result="effect1_dropShadow_0_1"/><feBlend in="SourceGraphic" in2="effect1_dropShadow_0_1" mode="normal" result="shape"/></filter><filter id="filter1_d_0_1" width="39.802" height="42.85" x="0" y="14" color-interpolation-filters="sRGB" filterUnits="userSpaceOnUse"><feFlood flood-opacity="0" result="BackgroundImageFix"/><feColorMatrix in="SourceAlpha" result="hardAlpha" type="matrix" values="0 0 0 0 0 0 0 0 0 0 0 0 0 0 0 0 0 0 127 0"/><feOffset dy="4"/><feGaussianBlur stdDeviation="2"/><feComposite in2="hardAlpha" operator="out"/><feColorMatrix type="matrix" values="0 0 0 0 0 0 0 0 0 0 0 0 0 0 0 0 0 0 0.25 0"/><feBlend in2="BackgroundImageFix" mode="normal" result="effect1_dropShadow_0_1"/><feBlend in="SourceGraphic" in2="effect1_dropShadow_0_1" mode="normal" result="shape"/></filter></defs></svg>